<svg>
    <symbol id='home' viewBox="0 0 14 14" xmlns="http://www.w3.org/2000/svg">
    <!-- Нужно убрать все width, height и fill -->
        <path fill-rule="evenodd" clip-rule="evenodd" d="M6.64195 0.70621C6.8526 0.542373 7.14757 0.542373 7.35821 0.70621L12.6082 4.78954C12.7503 4.90006 12.8334 5.06999 12.8334 5.25V11.6667C12.8334 12.1308 12.649 12.5759 12.3209 12.9041C11.9927 13.2323 11.5475 13.4167 11.0834 13.4167H2.91675C2.45262 13.4167 2.0075 13.2323 1.67931 12.9041C1.35112 12.5759 1.16675 12.1308 1.16675 11.6667V5.25C1.16675 5.06999 1.24986 4.90006 1.39195 4.78954L6.64195 0.70621ZM2.33341 5.5353V11.6667C2.33341 11.8214 2.39487 11.9697 2.50427 12.0791C2.61367 12.1885 2.76204 12.25 2.91675 12.25H11.0834C11.2381 12.25 11.3865 12.1885 11.4959 12.0791C11.6053 11.9697 11.6667 11.8214 11.6667 11.6667V5.5353L7.00008 1.90567L2.33341 5.5353Z" />
        <path fill-rule="evenodd" clip-rule="evenodd" d="M4.66675 7C4.66675 6.67783 4.92792 6.41667 5.25008 6.41667H8.75008C9.07225 6.41667 9.33342 6.67783 9.33342 7V12.8333C9.33342 13.1555 9.07225 13.4167 8.75008 13.4167C8.42792 13.4167 8.16675 13.1555 8.16675 12.8333V7.58333H5.83342V12.8333C5.83342 13.1555 5.57225 13.4167 5.25008 13.4167C4.92792 13.4167 4.66675 13.1555 4.66675 12.8333V7Z" />
    </symbol>

    <symbol id='user' viewBox="0 0 14 14" xmlns="http://www.w3.org/2000/svg">
        <path fill-rule="evenodd" clip-rule="evenodd" d="M2.60427 9.02094C3.15125 8.47396 3.89312 8.16667 4.66667 8.16667H9.33333C10.1069 8.16667 10.8487 8.47396 11.3957 9.02094C11.9427 9.56792 12.25 10.3098 12.25 11.0833V12.25C12.25 12.5722 11.9888 12.8333 11.6667 12.8333C11.3445 12.8333 11.0833 12.5722 11.0833 12.25V11.0833C11.0833 10.6192 10.899 10.1741 10.5708 9.8459C10.2426 9.51771 9.79746 9.33333 9.33333 9.33333H4.66667C4.20254 9.33333 3.75742 9.51771 3.42923 9.8459C3.10104 10.1741 2.91667 10.6192 2.91667 11.0833V12.25C2.91667 12.5722 2.6555 12.8333 2.33333 12.8333C2.01117 12.8333 1.75 12.5722 1.75 12.25V11.0833C1.75 10.3098 2.05729 9.56792 2.60427 9.02094Z"/>
        <path fill-rule="evenodd" clip-rule="evenodd" d="M6.99992 2.33333C6.03342 2.33333 5.24992 3.11683 5.24992 4.08333C5.24992 5.04983 6.03342 5.83333 6.99992 5.83333C7.96642 5.83333 8.74992 5.04983 8.74992 4.08333C8.74992 3.11683 7.96642 2.33333 6.99992 2.33333ZM4.08325 4.08333C4.08325 2.4725 5.38909 1.16666 6.99992 1.16666C8.61075 1.16666 9.91659 2.4725 9.91659 4.08333C9.91659 5.69416 8.61075 7 6.99992 7C5.38909 7 4.08325 5.69416 4.08325 4.08333Z"/>
    </symbol>

    <symbol id='phoneCall' viewBox="0 0 14 14" xmlns="http://www.w3.org/2000/svg">
        <path d="M11.6666 13.3583C11.6083 13.3583 11.5499 13.3583 11.4916 13.3583C9.62494 13.125 7.75827 12.4833 6.18327 11.4917C4.72494 10.5583 3.4416 9.275 2.50827 7.81667C1.45827 6.24167 0.816602 4.375 0.641602 2.50833C0.641602 2.04167 0.758268 1.575 1.04993 1.225C1.3416 0.875 1.74993 0.641667 2.2166 0.583333C2.27493 0.583333 2.33327 0.583333 2.3916 0.583333H4.1416C5.0166 0.583333 5.77494 1.225 5.8916 2.1C5.94994 2.625 6.0666 3.15 6.2416 3.61667C6.47494 4.25833 6.29993 4.95833 5.83327 5.48333L5.42494 5.89167C6.12494 6.94167 6.99993 7.875 8.10827 8.575L8.5166 8.16667C8.98327 7.7 9.7416 7.525 10.3833 7.75833C10.8499 7.93333 11.3749 8.05 11.8999 8.10833C12.7749 8.225 13.4166 8.98333 13.4166 9.85833V11.6083C13.4166 12.075 13.2416 12.5417 12.8916 12.8333C12.5416 13.125 12.1333 13.3583 11.6666 13.3583ZM4.1416 1.75H2.3916C2.2166 1.75 2.0416 1.86667 1.92493 1.98333C1.8666 2.1 1.80827 2.21667 1.80827 2.39167C1.98327 4.08333 2.5666 5.71667 3.49994 7.175C4.37494 8.51667 5.48327 9.68333 6.82493 10.5C8.28327 11.4333 9.9166 12.0167 11.6083 12.1917C11.8416 12.1917 11.9583 12.1333 12.0749 12.0167C12.1916 11.9 12.2499 11.7833 12.2499 11.6083V9.85833C12.2499 9.56667 12.0166 9.33333 11.7249 9.275C11.1416 9.21667 10.5583 9.04167 9.97494 8.80833C9.7416 8.75 9.50827 8.75 9.33327 8.925L8.57493 9.68333C8.39994 9.85833 8.10827 9.91667 7.87494 9.8C6.29993 8.925 5.0166 7.64167 4.1416 6.06667C4.08327 5.83333 4.1416 5.54167 4.3166 5.36667L5.07493 4.60833C5.1916 4.49167 5.24994 4.2 5.1916 4.025C4.95827 3.44167 4.8416 2.85833 4.72494 2.275C4.72494 1.98333 4.43327 1.75 4.1416 1.75ZM11.0833 5.83333C10.7916 5.83333 10.5583 5.65833 10.4999 5.36667C10.3249 4.43333 9.5666 3.73333 8.63327 3.5C8.3416 3.44167 8.10827 3.15 8.1666 2.8C8.22494 2.50833 8.5166 2.275 8.8666 2.33333C10.2666 2.625 11.3749 3.675 11.6083 5.075C11.6666 5.36667 11.4916 5.71667 11.1416 5.775C11.1416 5.775 11.1416 5.83333 11.0833 5.83333ZM13.4166 5.775C13.1249 5.775 12.8916 5.54167 12.8333 5.25C12.5999 3.09167 10.9083 1.4 8.6916 1.10833C8.39993 1.05 8.1666 0.758333 8.1666 0.466667C8.1666 0.175 8.5166 -0.0583333 8.80827 -0.0583333C11.5499 0.233333 13.6499 2.33333 13.9416 5.075C13.9999 5.36667 13.7666 5.65833 13.4166 5.71667C13.4749 5.775 13.4166 5.775 13.4166 5.775Z" />
    </symbol>
    <symbol id='facebook1' viewBox="0 0 24 24" xmlns="http://www.w3.org/2000/svg">
        <path d="M12.001 2.00195C6.47895 2.00195 2.00195 6.47895 2.00195 12.001C2.00195 16.991 5.65795 21.127 10.439 21.88V14.892H7.89895V12.001H10.439V9.79795C10.439 7.28995 11.932 5.90695 14.215 5.90695C15.309 5.90695 16.455 6.10195 16.455 6.10195V8.56095H15.191C13.951 8.56095 13.563 9.33295 13.563 10.124V11.999H16.334L15.891 14.89H13.563V21.878C18.344 21.129 22 16.992 22 12.001C22 6.47895 17.523 2.00195 12.001 2.00195Z" >
    </symbol>
    <symbol id='youtube' viewBox="0 0 21 21" xmlns="http://www.w3.org/2000/svg">
        <g clip-path="url(#clip0_11_760)">
        <path d="M12.1831 10.3247L9.82477 9.22429C9.61897 9.12874 9.44992 9.23584 9.44992 9.46369V11.5364C9.44992 11.7642 9.61897 11.8713 9.82477 11.7758L12.182 10.6754C12.3889 10.5788 12.3889 10.4213 12.1831 10.3247ZM10.4999 0.420044C4.93282 0.420044 0.419922 4.93294 0.419922 10.5C0.419922 16.0671 4.93282 20.58 10.4999 20.58C16.067 20.58 20.5799 16.0671 20.5799 10.5C20.5799 4.93294 16.067 0.420044 10.4999 0.420044ZM10.4999 14.595C5.34022 14.595 5.24992 14.1299 5.24992 10.5C5.24992 6.87019 5.34022 6.40504 10.4999 6.40504C15.6596 6.40504 15.7499 6.87019 15.7499 10.5C15.7499 14.1299 15.6596 14.595 10.4999 14.595Z" />
    </symbol>
    <symbol id='email' viewBox="0 0 20 20" xmlns="http://www.w3.org/2000/svg">
        <path d="M16.6666 3.33325H3.33329C2.41663 3.33325 1.67496 4.08325 1.67496 4.99992L1.66663 14.9999C1.66663 15.9166 2.41663 16.6666 3.33329 16.6666H16.6666C17.5833 16.6666 18.3333 15.9166 18.3333 14.9999V4.99992C18.3333 4.08325 17.5833 3.33325 16.6666 3.33325ZM16.3333 6.87492L10.4416 10.5583C10.175 10.7249 9.82496 10.7249 9.55829 10.5583L3.66663 6.87492C3.58307 6.82801 3.50989 6.76464 3.45153 6.68863C3.39317 6.61262 3.35084 6.52557 3.32711 6.43273C3.30337 6.33989 3.29871 6.2432 3.31342 6.14851C3.32813 6.05382 3.36191 5.9631 3.41269 5.88184C3.46348 5.80058 3.53023 5.73046 3.6089 5.67575C3.68757 5.62103 3.77652 5.58284 3.87037 5.5635C3.96423 5.54416 4.06103 5.54406 4.15492 5.56321C4.24881 5.58236 4.33785 5.62036 4.41663 5.67492L9.99996 9.16658L15.5833 5.67492C15.6621 5.62036 15.7511 5.58236 15.845 5.56321C15.9389 5.54406 16.0357 5.54416 16.1295 5.5635C16.2234 5.58284 16.3124 5.62103 16.391 5.67575C16.4697 5.73046 16.5364 5.80058 16.5872 5.88184C16.638 5.9631 16.6718 6.05382 16.6865 6.14851C16.7012 6.2432 16.6966 6.33989 16.6728 6.43273C16.6491 6.52557 16.6067 6.61262 16.5484 6.68863C16.49 6.76464 16.4169 6.82801 16.3333 6.87492V6.87492Z"/>

    </symbol>
    <symbol id='location' viewBox="0 0 24 24" xmlns="http://www.w3.org/2000/svg">
        <path d="M12 2C8.13 2 5 5.13 5 9C5 13.17 9.42 18.92 11.24 21.11C11.64 21.59 12.37 21.59 12.77 21.11C14.58 18.92 19 13.17 19 9C19 5.13 15.87 2 12 2ZM12 11.5C11.337 11.5 10.7011 11.2366 10.2322 10.7678C9.76339 10.2989 9.5 9.66304 9.5 9C9.5 8.33696 9.76339 7.70107 10.2322 7.23223C10.7011 6.76339 11.337 6.5 12 6.5C12.663 6.5 13.2989 6.76339 13.7678 7.23223C14.2366 7.70107 14.5 8.33696 14.5 9C14.5 9.66304 14.2366 10.2989 13.7678 10.7678C13.2989 11.2366 12.663 11.5 12 11.5V11.5Z"/>

    </symbol>
    <symbol id='star' viewBox="0 0 8 8" xmlns="http://www.w3.org/2000/svg">
        <g clip-path="url(#clip0_11_255)">
        <path fill-rule="evenodd" clip-rule="evenodd" d="M4.00005 0.333328C4.12692 0.333328 4.2428 0.405352 4.29895 0.51912L5.25147 2.44882L7.38159 2.76017C7.50711 2.77851 7.61134 2.86652 7.65047 2.98718C7.68959 3.10785 7.65683 3.24027 7.56596 3.32878L6.02489 4.82978L6.38859 6.95031C6.41004 7.07538 6.35862 7.20177 6.25596 7.27635C6.1533 7.35092 6.0172 7.36075 5.9049 7.30169L4.00005 6.29994L2.0952 7.30169C1.9829 7.36075 1.8468 7.35092 1.74414 7.27635C1.64148 7.20177 1.59006 7.07538 1.61151 6.95031L1.97521 4.82978L0.434139 3.32878C0.343267 3.24027 0.310509 3.10785 0.349635 2.98718C0.388761 2.86652 0.492988 2.77851 0.618508 2.76017L2.74863 2.44882L3.70115 0.51912C3.7573 0.405352 3.87318 0.333328 4.00005 0.333328ZM4.00005 1.41975L3.26895 2.90087C3.22044 2.99915 3.12671 3.06731 3.01826 3.08316L1.38285 3.3222L2.56596 4.47454C2.64459 4.55112 2.68047 4.6615 2.66192 4.76968L2.38278 6.39722L3.8449 5.6283C3.94203 5.57723 4.05807 5.57723 4.1552 5.6283L5.61732 6.39722L5.33818 4.76968C5.31963 4.6615 5.35552 4.55112 5.43414 4.47454L6.61725 3.3222L4.98184 3.08316C4.87339 3.06731 4.77966 2.99915 4.73115 2.90087L4.00005 1.41975Z"/>
    </symbol>
    <symbol id='instagramm' viewBox="0 0 20 20" xmlns="http://www.w3.org/2000/svg">
        <g clip-path="url(#clip0_11_762)">
        <path d="M10 20C8.64583 20 7.35026 19.7363 6.11328 19.209C4.8763 18.6816 3.81185 17.972 2.91992 17.0801C2.02799 16.1882 1.31836 15.1237 0.791016 13.8867C0.263672 12.6497 0 11.3542 0 10C0 8.64583 0.263672 7.35026 0.791016 6.11328C1.31836 4.8763 2.02799 3.81185 2.91992 2.91992C3.81185 2.02799 4.8763 1.31836 6.11328 0.791016C7.35026 0.263672 8.64583 0 10 0C11.3542 0 12.6497 0.263672 13.8867 0.791016C15.1237 1.31836 16.1882 2.02799 17.0801 2.91992C17.972 3.81185 18.6816 4.8763 19.209 6.11328C19.7363 7.35026 20 8.64583 20 10C20 11.3542 19.7363 12.6497 19.209 13.8867C18.6816 15.1237 17.972 16.1882 17.0801 17.0801C16.1882 17.972 15.1237 18.6816 13.8867 19.209C12.6497 19.7363 11.3542 20 10 20ZM15 6.25C15 5.91146 14.8796 5.61849 14.6387 5.37109C14.3978 5.1237 14.1016 5 13.75 5H6.25C5.91146 5 5.61849 5.1237 5.37109 5.37109C5.1237 5.61849 5 5.91146 5 6.25V7.5H7.22656C7.98177 6.66667 8.90625 6.25 10 6.25C11.0938 6.25 12.0182 6.66667 12.7734 7.5H15V6.25ZM7.5 10C7.5 10.6901 7.74414 11.2793 8.23242 11.7676C8.7207 12.2559 9.3099 12.5 10 12.5C10.6901 12.5 11.2793 12.2559 11.7676 11.7676C12.2559 11.2793 12.5 10.6901 12.5 10C12.5 9.3099 12.2559 8.7207 11.7676 8.23242C11.2793 7.74414 10.6901 7.5 10 7.5C9.3099 7.5 8.7207 7.74414 8.23242 8.23242C7.74414 8.7207 7.5 9.3099 7.5 10ZM15 8.75H13.5156C13.6719 9.17969 13.75 9.59635 13.75 10C13.75 11.0417 13.3854 11.9271 12.6562 12.6562C11.9271 13.3854 11.0417 13.75 10 13.75C8.95833 13.75 8.07292 13.3854 7.34375 12.6562C6.61458 11.9271 6.25 11.0417 6.25 10C6.25 9.59635 6.32812 9.17969 6.48438 8.75H5V13.75C5 14.1016 5.12044 14.3978 5.36133 14.6387C5.60221 14.8796 5.89844 15 6.25 15H13.75C14.1016 15 14.3978 14.8796 14.6387 14.6387C14.8796 14.3978 15 14.1016 15 13.75V8.75Z" />

    </symbol>

</svg>